# xmcd
#
# Track frame offsets:
#	150
#	12143
#	28685
#	45756
#	62457
#	77978
#	91830
#	110029
#	127884
#	144534
#	161842
#	178425
#	192512
#	207728
#	223794
#
# Disc length: 3198 seconds
#
# Revision: 0
# Processed by: cddbd v1.5PL3 Copyright (c) Steve Scherf et al.
# Submitted via: dBpowerAMP V4.0
#
DISCID=d80c7c0f
DTITLE=циаммгс пкоутаявос - ломо поу
DYEAR=1900
DGENRE=
TTITLE0=лгпыс еяхеис
TTITLE1=ломо есу
TTITLE2=ликас
TTITLE3=оти йи ам лоу кес
TTITLE4=фы
TTITLE5=дем упожеяесаи
TTITLE6=жытиа йаи ацапг
TTITLE7=дем епистяежг г ацапг
TTITLE8=емас хеос
TTITLE9=мувтес апо йяустака
TTITLE10=се йоубакаы памтоу
TTITLE11=йакутеяа лайяиа соу
TTITLE12=евеис цимеи аисхгсг
TTITLE13=та цеяайисиа латиа лоу
TTITLE14=йаи дем лпояы
EXTD=
EXTT0=
EXTT1=
EXTT2=
EXTT3=
EXTT4=
EXTT5=
EXTT6=
EXTT7=
EXTT8=
EXTT9=
EXTT10=
EXTT11=
EXTT12=
EXTT13=
EXTT14=
PLAYORDER=
